<svg width="20" height="20" viewBox="0 0 20 20" fill="none" xmlns="http://www.w3.org/2000/svg">
<path d="M18.6518 15.7606L15.4626 12.4688C16.0424 11.2718 16.429 9.87531 16.429 8.4788C16.429 3.79052 12.7566 0 8.2145 0C3.67237 0 0 3.79052 0 8.4788C0 13.1671 3.67237 16.9576 8.2145 16.9576C9.56748 16.9576 10.9205 16.5586 12.0801 15.9601L15.2693 19.2519C16.2357 20.2494 17.6853 20.2494 18.6518 19.2519C19.5215 18.2544 19.5215 16.7581 18.6518 15.7606ZM8.2145 14.9626C4.73542 14.9626 1.93282 12.0698 1.93282 8.4788C1.93282 4.88778 4.73542 1.99501 8.2145 1.99501C11.6936 1.99501 14.4962 4.88778 14.4962 8.4788C14.4962 12.0698 11.6936 14.9626 8.2145 14.9626Z" fill="white"/>
</svg>
