<svg width="128" height="128" viewBox="0 0 128 128" fill="none" xmlns="http://www.w3.org/2000/svg">
<path d="M2.63936e-05 0L128 0V128H0L2.63936e-05 0Z" fill="url(#paint0_linear_70_1104)"/>
<path d="M17.464 52V32.56H25.672V35.248H21.424V40.504H25.024V43.264H21.424V52H17.464ZM27.3976 52V38.128H31.0216V52H27.3976ZM27.3736 35.848V33.136H31.0216V35.848H27.3736ZM33.5136 52V38.128H37.1376V39.52C37.6336 39.024 38.1536 38.632 38.6976 38.344C39.2576 38.04 39.8496 37.888 40.4736 37.888C41.0496 37.888 41.5136 38.032 41.8656 38.32C42.2336 38.608 42.5056 38.992 42.6816 39.472C42.8576 39.936 42.9456 40.464 42.9456 41.056V52H39.3456V41.656C39.3456 41.272 39.2816 40.984 39.1536 40.792C39.0416 40.6 38.8176 40.504 38.4816 40.504C38.2896 40.504 38.0736 40.56 37.8336 40.672C37.6096 40.768 37.3776 40.904 37.1376 41.08V52H33.5136ZM47.3896 52V35.512H44.3896V32.56H54.3256V35.512H51.3736V52H47.3896ZM56.089 52V32.56H64.561V35.296H60.049V40.456H63.529V43.216H60.049V49.312H64.609V52H56.089ZM72.0124 52.264C70.5724 52.264 69.4284 51.992 68.5804 51.448C67.7484 50.904 67.1644 50.152 66.8284 49.192C66.4924 48.216 66.3244 47.088 66.3244 45.808V38.824C66.3244 37.48 66.4924 36.328 66.8284 35.368C67.1644 34.392 67.7484 33.64 68.5804 33.112C69.4284 32.584 70.5724 32.32 72.0124 32.32C73.4044 32.32 74.4924 32.552 75.2764 33.016C76.0764 33.48 76.6364 34.136 76.9564 34.984C77.2924 35.832 77.4604 36.816 77.4604 37.936V39.568H73.6204V37.744C73.6204 37.296 73.5964 36.88 73.5484 36.496C73.5004 36.096 73.3644 35.776 73.1404 35.536C72.9324 35.28 72.5644 35.152 72.0364 35.152C71.5084 35.152 71.1244 35.28 70.8844 35.536C70.6444 35.792 70.4924 36.128 70.4284 36.544C70.3644 36.944 70.3324 37.392 70.3324 37.888V46.72C70.3324 47.264 70.3724 47.744 70.4524 48.16C70.5484 48.56 70.7164 48.872 70.9564 49.096C71.2124 49.304 71.5724 49.408 72.0364 49.408C72.5484 49.408 72.9084 49.288 73.1164 49.048C73.3404 48.792 73.4764 48.456 73.5244 48.04C73.5884 47.624 73.6204 47.184 73.6204 46.72V44.824H77.4604V46.432C77.4604 47.568 77.3004 48.576 76.9804 49.456C76.6604 50.32 76.1084 51.008 75.3244 51.52C74.5404 52.016 73.4364 52.264 72.0124 52.264ZM79.9261 52V32.56H83.8861V40.552H87.3181V32.56H91.2781V52H87.3181V43.384H83.8861V52H79.9261Z" fill="white"/>
<path d="M16 24.442C16.5431 21.6214 17.0829 18.82 17.625 16.0112C17.669 16.008 17.7076 16.0016 17.7452 16.0016C18.8034 16.0016 19.8617 15.9974 20.9199 16.0027C21.492 16.0059 22.0329 16.1359 22.5159 16.4536C23.0933 16.8331 23.4711 17.3618 23.6804 18.012C23.8157 18.431 23.8597 18.8627 23.8607 19.3029C23.8618 19.9169 23.7577 20.5096 23.5463 21.0852C23.278 21.8154 22.8787 22.4667 22.3238 23.0168C21.6938 23.6425 20.9597 24.1019 20.086 24.3183C19.7586 24.3993 19.427 24.443 19.0889 24.443C18.1133 24.442 17.1366 24.443 16.161 24.443C16.1148 24.442 16.0687 24.442 16 24.442ZM18.2732 22.8483C18.3162 22.8537 18.343 22.859 18.3709 22.8601C18.5566 22.8654 18.7422 22.8729 18.9279 22.8739C19.0997 22.875 19.2724 22.8835 19.442 22.8643C20.0506 22.7961 20.5529 22.5211 20.9264 22.0425C21.6079 21.1694 21.9063 20.177 21.799 19.0748C21.7635 18.7124 21.6369 18.3777 21.4158 18.0835C21.2441 17.8543 21.023 17.6933 20.7471 17.6102C20.5883 17.5622 20.4252 17.5441 20.2609 17.5419C19.9787 17.5398 19.6964 17.5409 19.4131 17.5409C19.3744 17.5409 19.3358 17.5409 19.2853 17.5409C18.9472 19.3115 18.6124 21.0724 18.2732 22.8483Z" fill="white"/>
<path d="M60.3843 24.4427C60.3316 24.4427 60.2929 24.4427 60.2531 24.4427C59.7694 24.4427 59.2856 24.4427 58.8029 24.4427C58.6438 24.4427 58.6739 24.4565 58.6212 24.3179C57.93 22.496 57.2409 20.673 56.5508 18.85C56.5357 18.8105 56.5196 18.7721 56.4927 18.7327C56.4207 18.9619 56.3863 19.1964 56.339 19.4289C56.2906 19.6687 56.2444 19.9086 56.1971 20.1495C56.1508 20.3862 56.1046 20.6229 56.0584 20.8595C56.0111 21.0994 55.9638 21.3403 55.9176 21.5802C55.8713 21.8169 55.8251 22.0536 55.7789 22.2902C55.7327 22.5269 55.6864 22.7636 55.6391 23.0002C55.5918 23.2401 55.5456 23.481 55.4983 23.7209C55.4521 23.9576 55.4048 24.1932 55.3575 24.4352C54.8554 24.4352 54.3599 24.4352 53.8481 24.4352C54.3921 21.6229 54.9339 18.818 55.4768 16.0078C55.5252 16.0046 55.5639 16.0003 55.6026 16.0003C56.2261 16.0003 56.8496 16.0003 57.472 16.0003C57.6172 16.0003 57.5978 15.9993 57.6451 16.124C58.1719 17.5302 58.6986 18.9363 59.2254 20.3425C59.2985 20.5386 59.3716 20.7348 59.4458 20.931C59.4576 20.9619 59.4737 20.9917 59.4877 21.0216C59.4952 21.0205 59.5038 21.0184 59.5114 21.0173C59.8382 19.3521 60.1639 17.6858 60.4896 16.0248C60.5799 15.9939 61.8915 15.9907 62 16.0217C61.4615 18.8244 60.9239 21.6271 60.3843 24.4427Z" fill="white"/>
<path d="M49.6412 24.443C49.0055 24.443 48.3836 24.443 47.7341 24.443C48.2061 23.9918 48.6706 23.5672 49.1224 23.1202C48.9247 23.102 48.7323 23.1052 48.5399 23.1052C48.3496 23.1042 48.1583 23.1052 47.951 23.1052C48.4038 20.7326 48.8545 18.3727 49.3042 16.0182C49.4307 15.9905 55.2123 15.9958 55.3037 16.0246C55.1932 16.5612 55.0837 17.0979 54.971 17.6462C54.92 17.6494 54.8722 17.6558 54.8233 17.6558C53.587 17.6558 52.3518 17.6558 51.1155 17.6558C51.0634 17.6558 51.0114 17.6558 50.9508 17.6558C50.8317 18.313 50.7148 18.9574 50.5947 19.6177C51.6608 19.6177 52.71 19.6177 53.7773 19.6177C53.6795 20.1394 53.5838 20.643 53.4871 21.1593C52.4198 21.1593 51.3547 21.1593 50.279 21.1593C50.0653 22.256 49.8538 23.3453 49.6412 24.443Z" fill="white"/>
<path d="M36.5339 21.5327C35.2028 21.5327 33.8824 21.5327 32.5513 21.5327C32.5173 21.6997 32.4864 21.8604 32.4524 22.0201C32.396 22.2838 32.4471 22.5285 32.5886 22.7533C32.7418 22.997 32.9833 23.1178 33.2578 23.1788C33.5047 23.2345 33.7356 23.1861 33.9558 23.0706C34.3261 22.8762 34.607 22.6021 34.7474 22.1882C35.2731 22.2197 35.7976 22.2512 36.3339 22.2838C36.2966 22.4256 36.2402 22.5453 36.1785 22.6619C35.887 23.2155 35.4507 23.6315 34.8996 23.9288C34.4814 24.1547 34.0399 24.3248 33.5653 24.3973C33.127 24.4646 32.6897 24.4625 32.2566 24.3585C31.6639 24.2145 31.2256 23.871 30.9191 23.3511C30.6638 22.9183 30.551 22.4518 30.5574 21.9571C30.5712 20.9665 30.9 20.083 31.548 19.3277C32.1332 18.646 32.8844 18.2374 33.7813 18.0955C34.0973 18.0462 34.4144 18.0189 34.7336 18.0535C35.4688 18.1323 36.0125 18.4989 36.3637 19.1366C36.5733 19.5179 36.6626 19.9339 36.6701 20.3667C36.6765 20.7249 36.652 21.0789 36.5637 21.4276C36.5562 21.4602 36.5467 21.4896 36.5339 21.5327ZM32.7641 20.4864C32.8759 20.5106 34.8655 20.5085 34.9624 20.4822C34.9773 20.2984 35.0166 20.1145 34.9868 19.9244C34.9645 19.7879 34.9251 19.6586 34.8453 19.5441C34.64 19.2479 34.3133 19.1481 33.9345 19.2143C33.4547 19.2973 32.8822 19.7311 32.7641 20.4864Z" fill="white"/>
<path d="M43.0758 20.391C42.4921 20.4235 41.9254 20.455 41.3448 20.4866C41.3438 20.4403 41.3427 20.4036 41.3406 20.3668C41.3342 20.2376 41.3385 20.1073 41.3183 19.9812C41.2918 19.8132 41.1994 19.6787 41.0593 19.5747C40.6613 19.2795 40.1625 19.3152 39.7921 19.7113C39.6372 19.8762 39.5119 20.0611 39.4122 20.2638C39.2275 20.6389 39.0694 21.0234 39.0078 21.4404C38.9601 21.7619 38.9548 22.0813 39.0407 22.3975C39.0566 22.4542 39.0768 22.5109 39.1023 22.5645C39.2456 22.8681 39.5003 23.0709 39.9163 22.9984C40.4714 22.9028 40.8269 22.5813 40.9967 22.0539C41.0116 22.0077 41.0243 21.9605 41.0392 21.9142C41.0402 21.9111 41.0434 21.909 41.0551 21.8932C41.5847 21.9321 42.1217 21.972 42.6746 22.013C42.6672 22.0792 42.6672 22.1348 42.6534 22.1863C42.543 22.5876 42.3531 22.948 42.075 23.26C41.6568 23.7274 41.1559 24.071 40.551 24.2664C39.9269 24.4681 39.2954 24.4964 38.6597 24.3546C38.0017 24.2086 37.5316 23.8157 37.2259 23.2232C37.0741 22.928 36.9924 22.6149 36.9712 22.2882C36.8948 21.1053 37.3066 20.0926 38.0972 19.2217C38.457 18.8257 38.8815 18.5063 39.3825 18.2972C39.8972 18.0829 40.4342 18.0084 40.9893 18.0483C41.3353 18.0735 41.6706 18.1386 41.9752 18.3067C42.6799 18.6964 43.0631 19.2837 43.0748 20.0926C43.0769 20.1882 43.0758 20.2828 43.0758 20.391Z" fill="white"/>
<path d="M47.1411 22.9999C47.1378 23.0304 47.1367 23.0577 47.1311 23.084C47.0544 23.454 46.9765 23.825 46.8998 24.195C46.8898 24.2433 46.8798 24.278 46.8164 24.2874C46.3338 24.36 45.8523 24.4451 45.3619 24.443C45.0639 24.4409 44.7703 24.4094 44.4912 24.3022C44.0542 24.135 43.8206 23.8271 43.7684 23.3867C43.7384 23.1355 43.7784 22.8906 43.8262 22.6468C43.9819 21.8637 44.1465 21.0818 44.3077 20.2998C44.3533 20.077 44.4 19.8542 44.4456 19.6303C44.4489 19.6135 44.45 19.5967 44.4545 19.5651C44.3333 19.5546 44.2165 19.5609 44.0998 19.5599C43.9774 19.5588 43.8551 19.5599 43.7328 19.5599C43.6149 19.5599 43.4982 19.5599 43.3669 19.5599C43.4737 19.0816 43.5771 18.6171 43.6794 18.1567C43.7005 18.1504 43.7117 18.1452 43.7217 18.1452C44.0186 18.1452 44.3144 18.141 44.6113 18.1462C44.8281 18.1504 44.8248 18.1546 44.8626 17.9507C44.9794 17.3201 45.0983 16.6905 45.2162 16.061C45.2196 16.0441 45.2251 16.0273 45.2318 16C45.8267 16 46.4205 16 47.0299 16C46.8976 16.7105 46.7664 17.4179 46.6329 18.1389C46.6852 18.1431 46.7308 18.1504 46.7764 18.1504C47.1433 18.1515 47.5103 18.1515 47.8773 18.1515C47.9206 18.1515 47.964 18.1515 48.0252 18.1515C47.9262 18.6297 47.8194 19.089 47.7149 19.5578C47.2523 19.5578 46.7942 19.5578 46.3316 19.5578C46.3193 19.5903 46.3049 19.6145 46.3004 19.6408C46.1559 20.3797 46.0113 21.1186 45.8701 21.8585C45.8278 22.0782 45.8 22.301 45.7656 22.5227C45.7511 22.6152 45.7555 22.7046 45.8089 22.7866C45.8545 22.857 45.9135 22.9074 46.0002 22.9348C46.2626 23.0188 46.5317 23.0125 46.802 22.9999C46.9132 22.9957 47.0232 22.9999 47.1411 22.9999Z" fill="white"/>
<path d="M28.4893 24.443C27.9189 24.443 27.3536 24.443 26.772 24.443C26.8636 23.9144 26.9635 23.3944 27.0592 22.8744C27.156 22.3523 27.2507 21.829 27.3464 21.3058C27.4422 20.7836 27.5389 20.2604 27.6347 19.7383C27.7315 19.2161 27.8282 18.695 27.926 18.1675C28.4577 18.1675 28.9822 18.1675 29.519 18.1675C29.4457 18.5564 29.3744 18.9357 29.3031 19.316C29.3092 19.3192 29.3153 19.3214 29.3214 19.3246C29.3347 19.3074 29.3499 19.2924 29.3591 19.273C29.4885 19.0152 29.6514 18.782 29.8307 18.5618C30.1078 18.2234 30.453 18.0257 30.889 18.0386C30.9695 18.0407 31.0509 18.0386 31.1375 18.0386C31.1375 18.0729 31.1416 18.0976 31.1365 18.1202C31.0336 18.6596 30.9307 19.1989 30.8269 19.7383C30.8024 19.865 30.8014 19.865 30.6741 19.8693C30.4968 19.8758 30.3237 19.9091 30.1556 19.9682C29.8175 20.0885 29.5598 20.3173 29.3724 20.6354C29.1798 20.962 29.0739 21.323 29.0047 21.6969C28.8712 22.4081 28.7388 23.1204 28.6064 23.8317C28.5758 23.9961 28.5453 24.1615 28.5147 24.3259C28.5086 24.3646 28.4984 24.4011 28.4893 24.443Z" fill="white"/>
<path d="M25.0375 18.3291C25.6081 18.3291 26.1818 18.3291 26.7722 18.3291C26.6473 19.0136 26.514 19.6866 26.387 20.3606C26.2589 21.0409 26.1277 21.7192 25.9975 22.3995C25.8684 23.0756 25.7383 23.7507 25.6091 24.4226C25.5258 24.4447 23.9962 24.451 23.8609 24.431C23.8536 24.3553 24.9938 18.4385 25.0375 18.3291Z" fill="white"/>
<path d="M25.3155 16C25.8992 16 26.4777 16 27.0634 16C27.0623 16.0258 27.0634 16.046 27.0603 16.0662C26.9682 16.5947 26.8761 17.1221 26.784 17.6495C26.7674 17.7415 26.7653 17.746 26.6763 17.746C26.1527 17.7471 25.6281 17.7471 25.1044 17.746C25.0775 17.746 25.0506 17.7404 25.0258 17.737C25.0144 17.6495 25.2441 16.2772 25.3155 16Z" fill="white"/>
<defs>
<linearGradient id="paint0_linear_70_1104" x1="0" y1="0" x2="128" y2="128" gradientUnits="userSpaceOnUse">
<stop stop-color="#0C6FB5"/>
<stop offset="1" stop-color="#0C6FB5" stop-opacity="0"/>
</linearGradient>
</defs>
</svg>
