<svg width="20" height="16" viewBox="0 0 20 16" fill="none" xmlns="http://www.w3.org/2000/svg">
<path d="M19.8291 7.12512L13.8294 0.228953C13.7014 0.0827538 13.5227 0 13.3334 0H9.33364C9.07099 0 8.83233 0.159991 8.72434 0.408253C8.61768 0.657894 8.66168 0.948912 8.83767 1.15028L14.436 7.58578L8.83767 14.0199C8.66168 14.2226 8.61635 14.5137 8.72434 14.7619C8.83233 15.0116 9.07099 15.1716 9.33364 15.1716H13.3334C13.5227 15.1716 13.7014 15.0874 13.8294 14.944L19.8291 8.04782C20.0571 7.78577 20.0571 7.38579 19.8291 7.12512Z" fill="white"/>
<path d="M11.1628 7.12512L5.16314 0.228953C5.03514 0.0827538 4.85649 0 4.66716 0H0.66738C0.404728 0 0.166074 0.159991 0.0580799 0.408253C-0.048581 0.657894 -0.00458339 0.948912 0.171407 1.15028L5.76977 7.58578L0.171407 14.0199C-0.00458339 14.2226 -0.0499143 14.5137 0.0580799 14.7619C0.166074 15.0116 0.404728 15.1716 0.66738 15.1716H4.66716C4.85649 15.1716 5.03514 15.0874 5.16314 14.944L11.1628 8.04782C11.3908 7.78577 11.3908 7.38579 11.1628 7.12512Z" fill="white"/>
</svg>
