<svg width="164" height="30" viewBox="0 0 164 30" fill="none" xmlns="http://www.w3.org/2000/svg">
<path d="M0 29.9962C1.9297 19.9741 3.84795 10.0202 5.77383 0.0398262C5.93019 0.0284633 6.06748 0.00573748 6.20096 0.00573748C9.96119 0.00573748 13.7214 -0.00941305 17.4817 0.00952511C19.5143 0.020888 21.4364 0.482979 23.1525 1.61169C25.2043 2.96009 26.5467 4.83876 27.2903 7.14921C27.7708 8.63775 27.9272 10.1717 27.931 11.736C27.9348 13.9177 27.5649 16.0236 26.8136 18.069C25.8602 20.6635 24.4415 22.9777 22.4699 24.9321C20.2313 27.1555 17.6228 28.788 14.5185 29.5568C13.3553 29.8447 12.1769 30 10.9756 30C7.50903 29.9962 4.03863 30 0.572044 30C0.408058 29.9962 0.244072 29.9962 0 29.9962ZM8.07726 24.3337C8.22981 24.3526 8.32515 24.3716 8.4243 24.3754C9.08406 24.3943 9.74382 24.4208 10.4036 24.4246C11.0138 24.4284 11.6277 24.4587 12.2303 24.3905C14.3926 24.1481 16.1774 23.1709 17.5045 21.4703C19.9262 18.3682 20.9864 14.8419 20.605 10.9255C20.4792 9.63769 20.0292 8.44837 19.2436 7.40298C18.6334 6.58864 17.8478 6.01671 16.8677 5.72128C16.3033 5.55083 15.7236 5.48644 15.1401 5.47887C14.1371 5.47129 13.1341 5.47508 12.1273 5.47508C11.99 5.47508 11.8528 5.47508 11.6735 5.47508C10.4722 11.7663 9.28237 18.0235 8.07726 24.3337Z" fill="white"/>
<path d="M157.707 29.9986C157.52 29.9986 157.382 29.9986 157.241 29.9986C155.522 29.9986 153.803 29.9986 152.088 29.9986C151.523 29.9986 151.63 30.0479 151.443 29.5554C148.986 23.0817 146.538 16.6041 144.086 10.1266C144.032 9.98643 143.975 9.85006 143.879 9.70991C143.623 10.5243 143.501 11.3577 143.333 12.1835C143.161 13.0358 142.997 13.8881 142.829 14.7442C142.665 15.5852 142.5 16.4261 142.336 17.267C142.168 18.1193 142 18.9754 141.836 19.8278C141.672 20.6687 141.507 21.5096 141.343 22.3506C141.179 23.1915 141.015 24.0325 140.846 24.8734C140.678 25.7257 140.514 26.5818 140.346 27.4341C140.182 28.2751 140.014 29.1122 139.846 29.9721C138.062 29.9721 136.301 29.9721 134.483 29.9721C136.415 19.9793 138.341 10.0129 140.27 0.0276833C140.442 0.0163192 140.579 0.00116705 140.717 0.00116705C142.932 0.00116705 145.148 0.00116705 147.359 0.00116705C147.875 0.00116705 147.806 -0.00262098 147.974 0.440579C149.846 5.437 151.718 10.4334 153.589 15.4298C153.849 16.1268 154.109 16.8238 154.372 17.5208C154.414 17.6307 154.472 17.7368 154.521 17.8428C154.548 17.839 154.579 17.8315 154.605 17.8277C155.767 11.9108 156.924 5.99005 158.081 0.0882919C158.402 -0.0215612 163.062 -0.0329253 163.448 0.0769278C161.534 10.0357 159.625 19.9944 157.707 29.9986Z" fill="white"/>
<path d="M119.535 30C117.276 30 115.066 30 112.759 30C114.436 28.3965 116.086 26.8878 117.691 25.2995C116.989 25.2351 116.305 25.2465 115.622 25.2465C114.945 25.2427 114.266 25.2465 113.529 25.2465C115.138 16.8159 116.74 8.43087 118.337 0.0647748C118.787 -0.0337836 139.33 -0.01483 139.655 0.0875191C139.262 1.99425 138.873 3.90097 138.473 5.8494C138.292 5.86077 138.122 5.88351 137.948 5.88351C133.555 5.88351 129.166 5.88351 124.773 5.88351C124.588 5.88351 124.403 5.88351 124.188 5.88351C123.765 8.21859 123.349 10.5082 122.923 12.8546C126.711 12.8546 130.439 12.8546 134.231 12.8546C133.884 14.7083 133.544 16.4975 133.2 18.3322C129.408 18.3322 125.623 18.3322 121.801 18.3322C121.042 22.229 120.29 26.0994 119.535 30Z" fill="white"/>
<path d="M72.9609 19.6589C68.2313 19.6589 63.5396 19.6589 58.81 19.6589C58.689 20.2524 58.5793 20.8235 58.4584 21.3908C58.258 22.3277 58.4395 23.1974 58.9423 23.9962C59.4867 24.8621 60.3449 25.2914 61.3203 25.5079C62.1974 25.7057 63.0178 25.534 63.8004 25.1234C65.1161 24.4329 66.1142 23.4587 66.6132 21.988C68.4809 22.1 70.3447 22.212 72.2502 22.3277C72.1179 22.8316 71.9175 23.2571 71.6982 23.6714C70.6623 25.6385 69.1122 27.1166 67.1539 28.1729C65.6681 28.9754 64.0991 29.5801 62.4129 29.8376C60.8553 30.0765 59.3014 30.069 57.7627 29.6995C55.6569 29.1882 54.0993 27.9676 53.0105 26.12C52.1031 24.5822 51.7023 22.9249 51.725 21.1669C51.7742 17.6471 52.9424 14.508 55.2448 11.8243C57.3242 9.40185 59.9933 7.94988 63.1804 7.44598C64.3033 7.27055 65.4299 7.17351 66.5641 7.29668C69.1765 7.57662 71.1084 8.87929 72.356 11.145C73.1008 12.4999 73.4184 13.978 73.4449 15.5158C73.4675 16.7886 73.3806 18.0465 73.0668 19.2857C73.0403 19.4014 73.0063 19.5059 72.9609 19.6589ZM59.5661 15.9413C59.9631 16.0271 67.0329 16.0197 67.3769 15.9264C67.4298 15.2732 67.5697 14.62 67.4639 13.9444C67.3845 13.4591 67.2446 13 66.961 12.5932C66.2314 11.5406 65.0707 11.186 63.7248 11.4212C62.0197 11.716 59.9857 13.2576 59.5661 15.9413Z" fill="white"/>
<path d="M96.2059 15.6021C94.1318 15.7178 92.118 15.8298 90.0553 15.9418C90.0515 15.7775 90.0477 15.6469 90.0402 15.5163C90.0176 15.0571 90.0326 14.5943 89.961 14.1463C89.8667 13.5491 89.5386 13.0713 89.0408 12.7017C87.6267 11.6528 85.8543 11.7797 84.5382 13.187C83.9876 13.773 83.5426 14.43 83.1882 15.1504C82.532 16.483 81.9701 17.8492 81.7514 19.3312C81.5817 20.4734 81.5628 21.6081 81.8683 22.7317C81.9249 22.9333 81.9965 23.1348 82.087 23.3252C82.5961 24.404 83.5012 25.1244 84.9794 24.8669C86.9517 24.5272 88.215 23.3849 88.8184 21.5111C88.8712 21.3468 88.9164 21.1789 88.9692 21.0146C88.973 21.0034 88.9843 20.996 89.0258 20.94C90.9075 21.0781 92.8157 21.2199 94.7804 21.3655C94.754 21.6007 94.754 21.7985 94.705 21.9814C94.3128 23.4073 93.6378 24.6877 92.6498 25.7963C91.164 27.4574 89.384 28.678 87.2345 29.3723C85.0171 30.089 82.7733 30.1898 80.5145 29.6859C78.1764 29.167 76.5058 27.771 75.4198 25.6657C74.8805 24.6168 74.5901 23.5044 74.5147 22.3435C74.2432 18.1404 75.7064 14.542 78.5158 11.4475C79.7942 10.0403 81.3026 8.90551 83.0826 8.16269C84.9115 7.4012 86.8197 7.13618 88.792 7.27802C90.0213 7.36761 91.213 7.59904 92.2953 8.19628C94.7993 9.58114 96.1606 11.6678 96.2021 14.542C96.2096 14.8817 96.2059 15.2176 96.2059 15.6021Z" fill="white"/>
<path d="M110.652 24.8723C110.64 24.9806 110.636 25.0777 110.616 25.1711C110.344 26.4856 110.067 27.8039 109.795 29.1185C109.759 29.2903 109.723 29.4135 109.498 29.4471C107.783 29.7048 106.072 30.0073 104.33 29.9999C103.271 29.9924 102.228 29.8804 101.236 29.4994C99.6833 28.9056 98.8536 27.8114 98.6679 26.2466C98.5612 25.354 98.7034 24.4839 98.8733 23.6175C99.4265 20.8352 100.011 18.0567 100.584 15.2782C100.746 14.4864 100.912 13.6947 101.074 12.8992C101.086 12.8395 101.09 12.7797 101.106 12.6677C100.675 12.6303 100.26 12.6527 99.8453 12.649C99.4107 12.6453 98.9761 12.649 98.5414 12.649C98.1226 12.649 97.7077 12.649 97.2415 12.649C97.6208 10.9498 97.9882 9.2991 98.3518 7.66335C98.4268 7.64095 98.4663 7.62227 98.5019 7.62227C99.5569 7.62227 100.608 7.60734 101.663 7.62601C102.433 7.64095 102.422 7.65588 102.556 6.93138C102.971 4.69063 103.394 2.45362 103.812 0.216606C103.824 0.156852 103.844 0.097099 103.868 0C105.982 0 108.092 0 110.257 0C109.787 2.52457 109.32 5.03795 108.846 7.59987C109.032 7.6148 109.194 7.64095 109.356 7.64095C110.66 7.64468 111.964 7.64468 113.268 7.64468C113.422 7.64468 113.576 7.64468 113.793 7.64468C113.442 9.34391 113.062 10.9759 112.691 12.6415C111.047 12.6415 109.419 12.6415 107.775 12.6415C107.732 12.7573 107.681 12.8432 107.665 12.9366C107.151 15.562 106.637 18.1874 106.136 20.8165C105.986 21.5971 105.887 22.3888 105.764 23.1768C105.713 23.5054 105.729 23.8229 105.918 24.1142C106.08 24.3644 106.29 24.5436 106.598 24.6407C107.53 24.9395 108.487 24.9171 109.447 24.8723C109.842 24.8573 110.233 24.8723 110.652 24.8723Z" fill="white"/>
<path d="M44.3778 30C42.3511 30 40.3424 30 38.2759 30C38.6016 28.1218 38.9563 26.2741 39.2965 24.4264C39.6403 22.571 39.9769 20.7119 40.3171 18.8527C40.6573 16.9974 41.0011 15.1382 41.3413 13.2829C41.6851 11.4276 42.029 9.57604 42.3764 7.70161C44.2656 7.70161 46.1295 7.70161 48.0368 7.70161C47.7762 9.08357 47.5229 10.4312 47.2695 11.7826C47.2912 11.794 47.3129 11.8017 47.3347 11.8131C47.3817 11.752 47.436 11.6986 47.4686 11.6299C47.9282 10.7137 48.5073 9.88526 49.1442 9.10266C50.1287 7.90013 51.3556 7.19769 52.9046 7.2435C53.1905 7.25114 53.48 7.2435 53.7876 7.2435C53.7876 7.36567 53.8021 7.45347 53.784 7.53364C53.4185 9.45006 53.0529 11.3665 52.6838 13.2829C52.5969 13.7334 52.5933 13.7334 52.1409 13.7486C51.5112 13.7715 50.8959 13.8899 50.2988 14.0999C49.0972 14.5274 48.1815 15.3406 47.5156 16.4706C46.8316 17.6311 46.4552 18.9138 46.2091 20.2423C45.735 22.7695 45.2645 25.3006 44.794 27.8278C44.6854 28.4119 44.5769 28.9998 44.4683 29.5839C44.4466 29.7213 44.4104 29.8511 44.3778 30Z" fill="white"/>
<path d="M32.1121 8.27588C34.1396 8.27588 36.1782 8.27588 38.276 8.27588C37.832 10.7082 37.3584 13.0994 36.907 15.4943C36.452 17.9116 35.9858 20.3215 35.5233 22.7388C35.0645 25.1412 34.6021 27.5399 34.1433 29.9273C33.8473 30.0058 28.4123 30.0282 27.9313 29.9572C27.9054 29.6882 31.9567 8.66445 32.1121 8.27588Z" fill="white"/>
<path d="M33.0998 0C35.1737 0 37.2291 0 39.3102 0C39.3065 0.091703 39.3102 0.163471 39.2992 0.235238C38.9719 2.11316 38.6447 3.98709 38.3174 5.86102C38.2586 6.18796 38.2513 6.20391 37.935 6.20391C36.0745 6.20789 34.2103 6.20789 32.3497 6.20391C32.2541 6.20391 32.1585 6.18397 32.0703 6.17201C32.0299 5.86102 32.8461 0.98481 33.0998 0Z" fill="white"/>
</svg>
