<svg width="32" height="32" viewBox="0 0 32 32" fill="none" xmlns="http://www.w3.org/2000/svg">
<path d="M27.3137 4.68625C24.2917 1.66431 20.2738 0 16 0C11.7262 0 7.70831 1.66431 4.68625 4.68625C1.66431 7.70831 0 11.7262 0 16C0 20.2738 1.66431 24.2917 4.68625 27.3137C7.70831 30.3357 11.7262 32 16 32C20.2738 32 24.2917 30.3357 27.3137 27.3137C30.3357 24.2917 32 20.2738 32 16C32 11.7262 30.3357 7.70831 27.3137 4.68625ZM24.4375 16C24.4375 20.6524 20.6524 24.4375 16 24.4375C11.3476 24.4375 7.5625 20.6524 7.5625 16C7.5625 11.3476 11.3476 7.5625 16 7.5625C20.6524 7.5625 24.4375 11.3476 24.4375 16ZM16.9375 26.2694C19.0781 26.0756 21.032 25.2253 22.5955 23.9212L25.298 26.6238C23.032 28.6094 20.1278 29.883 16.9375 30.0931V26.2694ZM23.9212 22.5954C25.2252 21.032 26.0756 19.0781 26.2694 16.9375H30.0931C29.883 20.1278 28.6094 23.0319 26.6238 25.2979L23.9212 22.5954ZM26.2694 15.0625C26.203 14.329 26.0602 13.6172 25.8477 12.9357L29.3808 11.4722C29.7673 12.6111 30.011 13.8151 30.0931 15.0625H26.2694ZM28.6601 9.74125L25.1274 11.2046C24.7882 10.5616 24.3833 9.9585 23.9213 9.40456L26.6238 6.70206C27.4268 7.6185 28.1132 8.63931 28.6601 9.74125ZM16 1.875C19.5576 1.875 22.8118 3.19762 25.298 5.37625L22.5955 8.07875C20.8064 6.58662 18.5064 5.6875 16 5.6875C10.6297 5.6875 6.20581 9.81394 5.73056 15.0625H1.90688C2.39112 7.70944 8.5265 1.875 16 1.875ZM1.90688 16.9375H5.73056C6.17788 21.8772 10.1228 25.8221 15.0625 26.2694V30.0931C8.01944 29.6292 2.37075 23.9806 1.90688 16.9375Z" fill="white"/>
<path d="M11.3125 15.0625H13.1875V16.9375H11.3125V15.0625Z" fill="white"/>
<path d="M11.3125 11.3125H13.1875V13.1875H11.3125V11.3125Z" fill="white"/>
<path d="M11.3125 18.8125H13.1875V20.6875H11.3125V18.8125Z" fill="white"/>
<path d="M15.0625 15.0625H20.6875V16.9375H15.0625V15.0625Z" fill="white"/>
<path d="M15.0625 11.3125H20.6875V13.1875H15.0625V11.3125Z" fill="white"/>
<path d="M15.0625 18.8125H20.6875V20.6875H15.0625V18.8125Z" fill="white"/>
</svg>
