<svg width="40" height="40" viewBox="0 0 40 40" fill="none" xmlns="http://www.w3.org/2000/svg">
<path d="M17.9429 9.98789L14.9597 12.971L10.7834 12.3744C10.4913 12.3327 10.1965 12.4309 9.9879 12.6395L8.66208 13.9654C8.29597 14.3315 8.29597 14.9251 8.66208 15.2912L13.3025 19.9316L12.6396 20.5945C12.2734 20.9606 12.2734 21.5542 12.6396 21.9203L12.6414 21.9221C11.6699 22.0594 10.7335 22.5005 9.9879 23.2461C8.52561 24.7084 8.30892 28.7443 8.34348 30.5994C8.34804 30.8516 8.45198 31.0794 8.61789 31.2453C8.78379 31.4112 9.01157 31.5151 9.26378 31.5197C11.1408 31.5546 15.1587 31.3336 16.617 29.8753C17.3626 29.1297 17.8038 28.1933 17.941 27.2218L17.9429 27.2236C18.309 27.5897 18.9026 27.5897 19.2687 27.2236L19.9316 26.5607L24.572 31.2011C24.9381 31.5672 25.5317 31.5672 25.8978 31.2011L27.2236 29.8753C27.4323 29.6666 27.5305 29.3719 27.4888 29.0798L26.8922 24.9034L29.8753 21.9203C30.9719 20.8237 30.9719 19.0394 29.8753 17.9428C29.6429 17.7104 29.3794 17.5279 29.0983 17.3939L29.5623 16.93C31.639 14.8533 32.3885 11.7345 31.4718 8.98428C31.3785 8.7044 31.1588 8.48476 30.8789 8.39138C28.1288 7.4747 25.0098 8.22419 22.9332 10.3009L22.4692 10.7648C22.3353 10.4837 22.1527 10.2203 21.9203 9.98789C20.8237 8.89126 19.0394 8.8913 17.9429 9.98789ZM10.6508 14.6283L10.9823 14.2968L17.9429 15.2912L14.6283 18.6057L10.6508 14.6283ZM18.6058 25.2349L17.2799 23.909L17.9429 23.2461C18.309 22.88 18.309 22.2864 17.9429 21.9203C17.5767 21.5542 16.9831 21.5542 16.617 21.9203L15.9541 22.5832L14.6283 21.2574L22.5832 13.3025L26.5607 17.2799L18.6058 25.2349ZM10.2254 29.6378C10.2849 27.6985 10.6173 25.2684 11.3137 24.572C12.1779 23.7077 13.469 23.5251 14.5143 24.0231L13.9654 24.572C13.5993 24.9381 13.5993 25.5317 13.9654 25.8978C14.3315 26.2639 14.9251 26.2639 15.2912 25.8978L15.8401 25.3489C16.338 26.3941 16.1554 27.6852 15.2912 28.5494C14.5947 29.2459 12.1645 29.5783 10.2254 29.6378ZM25.2349 29.2123L21.2574 25.2349L24.572 21.9203L25.5663 28.8809L25.2349 29.2123ZM28.5494 19.2687C28.915 19.6342 28.915 20.229 28.5494 20.5945L26.5607 22.5832L26.2293 20.263L27.2236 19.2687C27.5892 18.9031 28.1839 18.9031 28.5494 19.2687ZM29.825 10.0381C30.298 12.0013 29.6999 14.1407 28.2365 15.6042L27.8865 15.9541L23.9091 11.9766L24.259 11.6267C25.7225 10.1632 27.8619 9.56504 29.825 10.0381ZM20.5945 11.3137C20.96 11.6792 20.96 12.274 20.5945 12.6395L19.6001 13.6339L17.2799 13.3025L19.2687 11.3137C19.6342 10.9482 20.2289 10.9481 20.5945 11.3137Z" fill="white"/>
</svg>
