<svg width="33" height="33" viewBox="0 0 33 33" fill="none" xmlns="http://www.w3.org/2000/svg">
<path d="M3.40909 21.6917C1.96388 18.2026 1.96381 14.3595 3.40909 10.8704C4.62335 7.93903 6.73576 5.55274 9.44919 4.00753V8.74037H11.7821V0.975586H4.01727V3.30845H6.32004C0.643403 7.75365 -1.63689 15.6057 1.25384 22.5845C2.35549 25.2441 4.13648 27.5737 6.40434 29.3214C8.60298 31.0157 11.2157 32.1364 13.9599 32.5623L14.3176 30.2569C9.39188 29.4926 5.31403 26.2907 3.40909 21.6917Z" fill="white"/>
<path d="M31.6893 22.5845C33.373 18.5198 33.373 14.0425 31.6893 9.97774C30.5876 7.31812 28.8067 4.9886 26.5388 3.24097C24.3401 1.54653 21.7274 0.425826 18.9833 0L18.6255 2.30534C23.5511 3.06966 27.629 6.2716 29.534 10.8705C30.9793 14.3596 30.9793 18.2027 29.534 21.6918C28.3197 24.6232 26.2073 27.0096 23.4939 28.5547V23.8219H21.161V31.5867H28.9258V29.2538H26.6332C28.8457 27.5262 30.5859 25.2484 31.6893 22.5845Z" fill="white"/>
<path d="M18.6531 12.7692H20.9859C20.9859 10.6833 19.5636 8.92403 17.638 8.40847V7.4303H15.3052V8.40847C13.3796 8.92403 11.9573 10.6832 11.9573 12.7692C11.9573 14.9032 13.0772 16.4321 15.1107 17.0745L15.3052 17.136V21.6351C14.6957 21.2478 14.2901 20.5671 14.2901 19.7931H11.9573C11.9573 21.879 13.3796 23.6383 15.3052 24.1538V25.132H17.638V24.1538C19.5636 23.6383 20.9859 21.8791 20.9859 19.7931C20.9859 17.6591 19.866 16.1302 17.8325 15.4878L17.638 15.4264V10.9272C18.2475 11.3145 18.6531 11.9952 18.6531 12.7692ZM14.2901 12.7692C14.2901 11.9952 14.6957 11.3144 15.3051 10.9272V14.643C14.5999 14.2769 14.2901 13.6925 14.2901 12.7692ZM18.6531 19.7931C18.6531 20.5671 18.2475 21.2479 17.638 21.6351V17.9193C18.3432 18.2855 18.6531 18.8699 18.6531 19.7931Z" fill="white"/>
</svg>
