<svg width="32" height="32" viewBox="0 0 32 32" fill="none" xmlns="http://www.w3.org/2000/svg">
<path d="M23.038 13.1106C24.4373 10.8451 24.8037 8.49629 24.0875 6.03091C23.5377 4.14856 22.4217 2.64934 20.8225 1.49994C17.7741 -0.665602 13.4263 -0.465706 10.5612 1.96636C7.64602 4.4484 6.42998 8.94606 8.91202 13.0606C8.72879 13.0772 8.59552 13.1106 8.4456 13.1106C7.26288 13.1106 6.06351 13.1272 4.88079 13.1106C4.33108 13.1106 3.9646 13.3271 3.76471 13.8268C2.54867 16.9086 1.33264 19.9736 0.116606 23.0554C0.016658 23.3052 0 23.5884 0 23.855C0 26.1538 0 28.4359 0 30.7347C0 31.7009 0.299844 32.0007 1.26601 32.0007C11.0942 32.0007 20.9224 32.0007 30.7507 32.0007C31.6835 32.0007 32 31.6842 32 30.7847C32 28.4526 32 26.1204 32 23.7883C32 23.4885 31.9334 23.1553 31.8334 22.8888C30.684 19.9403 29.4846 17.0085 28.3519 14.0767C28.0854 13.3937 27.6689 13.1106 26.936 13.1272C25.67 13.1439 24.404 13.1106 23.038 13.1106ZM1.89901 24.488C11.3274 24.488 20.7059 24.488 30.0843 24.488C30.0843 26.387 30.0843 28.236 30.0843 30.0684C20.6726 30.0684 11.2941 30.0684 1.89901 30.0684C1.89901 28.2027 1.89901 26.3703 1.89901 24.488ZM29.6512 22.5057C20.506 22.5057 11.4607 22.5057 2.41541 22.5057C2.41541 22.4224 2.39875 22.3724 2.41541 22.3391C3.34826 19.9903 4.26445 17.6582 5.23061 15.3261C5.29724 15.1595 5.59708 15.0262 5.79698 15.0096C7.2962 14.9763 8.79542 14.9763 10.2946 15.0096C10.5612 15.0096 10.861 15.1262 11.0776 15.2761C14.076 17.3917 17.9573 17.3917 20.9558 15.2761C21.189 15.1095 21.5221 15.0262 21.8053 15.0096C22.8381 14.9763 23.8876 14.9929 24.937 14.9929C25.52 14.9929 26.2197 14.8263 26.6361 15.1095C27.0193 15.3594 27.1192 16.0757 27.3191 16.5921C28.0854 18.5411 28.8516 20.49 29.6512 22.5057ZM16.9578 2.03299C19.3566 2.09962 22.7382 4.69827 22.5383 8.69619C22.3883 11.8779 19.4399 15.1095 16.9412 14.7764C16.9412 14.4932 16.9578 14.21 16.9412 13.9268C16.8912 13.3438 16.9911 12.9273 17.6075 12.5608C18.607 11.9778 18.9568 10.945 18.7569 9.79562C18.557 8.67953 17.874 7.92992 16.7746 7.61342C16.4748 7.53013 16.1582 7.53013 15.8584 7.4635C15.342 7.34689 15.0588 7.01373 15.0921 6.48068C15.1255 5.98094 15.442 5.66443 15.925 5.63112C16.4248 5.58114 16.7579 5.84767 16.8912 6.33075C16.9245 6.44736 16.9412 6.58062 16.9578 6.69723C17.0911 7.23029 17.5075 7.54679 17.9906 7.48016C18.4904 7.41352 18.8069 7.01373 18.7902 6.44736C18.7569 5.39791 18.2572 4.6483 17.3743 4.09858C17.2077 3.99864 16.9911 3.79874 16.9745 3.63216C16.9245 3.0991 16.9578 2.56605 16.9578 2.03299ZM15.0588 14.843C12.1437 14.8097 9.42842 11.628 9.44508 8.39635C9.4784 5.16469 12.2436 1.98302 15.0588 2.03299C15.0588 2.34949 15.0422 2.68265 15.0588 3.01581C15.1088 3.56553 14.9922 3.932 14.4425 4.26516C13.4097 4.88151 13.0432 5.89765 13.2598 7.06371C13.4597 8.17979 14.1593 8.91274 15.2421 9.2459C15.5252 9.32919 15.8251 9.32919 16.1083 9.37917C16.6247 9.47911 16.9245 9.79562 16.9245 10.3287C16.9245 10.8284 16.6247 11.1616 16.1249 11.2282C15.6085 11.2948 15.2587 11.0283 15.1088 10.5119C15.0755 10.412 15.0755 10.312 15.0422 10.2121C14.9422 9.66235 14.5924 9.36251 14.0427 9.39582C13.5263 9.42914 13.1765 9.86225 13.2098 10.4453C13.2598 11.4781 13.7595 12.2443 14.6424 12.7941C14.8423 12.9107 15.0088 13.2105 15.0422 13.4437C15.1088 13.8768 15.0588 14.3266 15.0588 14.843Z" fill="white"/>
<path d="M16.075 20.6899C18.3405 20.6899 20.606 20.6899 22.8881 20.6899C23.1713 20.6899 23.4712 20.6899 23.7544 20.6233C24.2208 20.5233 24.4373 20.1735 24.4373 19.7071C24.4207 19.2573 24.2041 18.9575 23.7544 18.8575C23.5211 18.8076 23.2546 18.8076 23.0047 18.8076C18.3405 18.8076 13.6763 18.8076 9.01203 18.8076C8.89543 18.8076 8.76216 18.8076 8.64556 18.8076C7.97924 18.8409 7.61276 19.1574 7.5961 19.7237C7.57944 20.3068 7.96258 20.6899 8.64556 20.6899C11.1109 20.6899 13.593 20.6733 16.075 20.6899Z" fill="white"/>
</svg>
